<svg id="my-svg" width="100%" xmlns="http://www.w3.org/2000/svg" xmlns:xlink="http://www.w3.org/1999/xlink" class="flowchart" style="max-width: 767.471px; background-color: white;" viewBox="0 0 767.471435546875 1021" role="graphics-document document" aria-roledescription="flowchart-v2"><style>#my-svg{font-family:"trebuchet ms",verdana,arial,sans-serif;font-size:16px;fill:#333;}@keyframes edge-animation-frame{from{stroke-dashoffset:0;}}@keyframes dash{to{stroke-dashoffset:0;}}#my-svg .edge-animation-slow{stroke-dasharray:9,5!important;stroke-dashoffset:900;animation:dash 50s linear infinite;stroke-linecap:round;}#my-svg .edge-animation-fast{stroke-dasharray:9,5!important;stroke-dashoffset:900;animation:dash 20s linear infinite;stroke-linecap:round;}#my-svg .error-icon{fill:#552222;}#my-svg .error-text{fill:#552222;stroke:#552222;}#my-svg .edge-thickness-normal{stroke-width:1px;}#my-svg .edge-thickness-thick{stroke-width:3.5px;}#my-svg .edge-pattern-solid{stroke-dasharray:0;}#my-svg .edge-thickness-invisible{stroke-width:0;fill:none;}#my-svg .edge-pattern-dashed{stroke-dasharray:3;}#my-svg .edge-pattern-dotted{stroke-dasharray:2;}#my-svg .marker{fill:#333333;stroke:#333333;}#my-svg .marker.cross{stroke:#333333;}#my-svg svg{font-family:"trebuchet ms",verdana,arial,sans-serif;font-size:16px;}#my-svg p{margin:0;}#my-svg .label{font-family:"trebuchet ms",verdana,arial,sans-serif;color:#333;}#my-svg .cluster-label text{fill:#333;}#my-svg .cluster-label span{color:#333;}#my-svg .cluster-label span p{background-color:transparent;}#my-svg .label text,#my-svg span{fill:#333;color:#333;}#my-svg .node rect,#my-svg .node circle,#my-svg .node ellipse,#my-svg .node polygon,#my-svg .node path{fill:#ECECFF;stroke:#9370DB;stroke-width:1px;}#my-svg .rough-node .label text,#my-svg .node .label text,#my-svg .image-shape .label,#my-svg .icon-shape .label{text-anchor:middle;}#my-svg .node .katex path{fill:#000;stroke:#000;stroke-width:1px;}#my-svg .rough-node .label,#my-svg .node .label,#my-svg .image-shape .label,#my-svg .icon-shape .label{text-align:center;}#my-svg .node.clickable{cursor:pointer;}#my-svg .root .anchor path{fill:#333333!important;stroke-width:0;stroke:#333333;}#my-svg .arrowheadPath{fill:#333333;}#my-svg .edgePath .path{stroke:#333333;stroke-width:2.0px;}#my-svg .flowchart-link{stroke:#333333;fill:none;}#my-svg .edgeLabel{background-color:rgba(232,232,232, 0.8);text-align:center;}#my-svg .edgeLabel p{background-color:rgba(232,232,232, 0.8);}#my-svg .edgeLabel rect{opacity:0.5;background-color:rgba(232,232,232, 0.8);fill:rgba(232,232,232, 0.8);}#my-svg .labelBkg{background-color:rgba(232, 232, 232, 0.5);}#my-svg .cluster rect{fill:#ffffde;stroke:#aaaa33;stroke-width:1px;}#my-svg .cluster text{fill:#333;}#my-svg .cluster span{color:#333;}#my-svg div.mermaidTooltip{position:absolute;text-align:center;max-width:200px;padding:2px;font-family:"trebuchet ms",verdana,arial,sans-serif;font-size:12px;background:hsl(80, 100%, 96.2745098039%);border:1px solid #aaaa33;border-radius:2px;pointer-events:none;z-index:100;}#my-svg .flowchartTitleText{text-anchor:middle;font-size:18px;fill:#333;}#my-svg rect.text{fill:none;stroke-width:0;}#my-svg .icon-shape,#my-svg .image-shape{background-color:rgba(232,232,232, 0.8);text-align:center;}#my-svg .icon-shape p,#my-svg .image-shape p{background-color:rgba(232,232,232, 0.8);padding:2px;}#my-svg .icon-shape rect,#my-svg .image-shape rect{opacity:0.5;background-color:rgba(232,232,232, 0.8);fill:rgba(232,232,232, 0.8);}#my-svg .label-icon{display:inline-block;height:1em;overflow:visible;vertical-align:-0.125em;}#my-svg .node .label-icon path{fill:currentColor;stroke:revert;stroke-width:revert;}#my-svg :root{--mermaid-font-family:"trebuchet ms",verdana,arial,sans-serif;}</style><g><marker id="my-svg_flowchart-v2-pointEnd" class="marker flowchart-v2" viewBox="0 0 10 10" refX="5" refY="5" markerUnits="userSpaceOnUse" markerWidth="8" markerHeight="8" orient="auto"><path d="M 0 0 L 10 5 L 0 10 z" class="arrowMarkerPath" style="stroke-width: 1; stroke-dasharray: 1, 0;"/></marker><marker id="my-svg_flowchart-v2-pointStart" class="marker flowchart-v2" viewBox="0 0 10 10" refX="4.5" refY="5" markerUnits="userSpaceOnUse" markerWidth="8" markerHeight="8" orient="auto"><path d="M 0 5 L 10 10 L 10 0 z" class="arrowMarkerPath" style="stroke-width: 1; stroke-dasharray: 1, 0;"/></marker><marker id="my-svg_flowchart-v2-circleEnd" class="marker flowchart-v2" viewBox="0 0 10 10" refX="11" refY="5" markerUnits="userSpaceOnUse" markerWidth="11" markerHeight="11" orient="auto"><circle cx="5" cy="5" r="5" class="arrowMarkerPath" style="stroke-width: 1; stroke-dasharray: 1, 0;"/></marker><marker id="my-svg_flowchart-v2-circleStart" class="marker flowchart-v2" viewBox="0 0 10 10" refX="-1" refY="5" markerUnits="userSpaceOnUse" markerWidth="11" markerHeight="11" orient="auto"><circle cx="5" cy="5" r="5" class="arrowMarkerPath" style="stroke-width: 1; stroke-dasharray: 1, 0;"/></marker><marker id="my-svg_flowchart-v2-crossEnd" class="marker cross flowchart-v2" viewBox="0 0 11 11" refX="12" refY="5.2" markerUnits="userSpaceOnUse" markerWidth="11" markerHeight="11" orient="auto"><path d="M 1,1 l 9,9 M 10,1 l -9,9" class="arrowMarkerPath" style="stroke-width: 2; stroke-dasharray: 1, 0;"/></marker><marker id="my-svg_flowchart-v2-crossStart" class="marker cross flowchart-v2" viewBox="0 0 11 11" refX="-1" refY="5.2" markerUnits="userSpaceOnUse" markerWidth="11" markerHeight="11" orient="auto"><path d="M 1,1 l 9,9 M 10,1 l -9,9" class="arrowMarkerPath" style="stroke-width: 2; stroke-dasharray: 1, 0;"/></marker><g class="root"><g class="clusters"/><g class="edgePaths"><path d="M316.322,71.5L302.643,77.583C288.964,83.667,261.606,95.833,248.004,109.5C234.402,123.167,234.555,138.333,234.632,145.917L234.708,153.5" id="L_A_B_0" class="edge-thickness-normal edge-pattern-solid edge-thickness-normal edge-pattern-solid flowchart-link" style=";" data-edge="true" data-et="edge" data-id="L_A_B_0" data-points="W3sieCI6MzE2LjMyMjAwMTIxMzU3NDk0LCJ5Ijo3MS41MDAwMDAwMDAwMDAwMX0seyJ4IjoyMzQuMjQ4NzAzMDAyOTI5NywieSI6MTA4fSx7IngiOjIzNC43NDg3MDMwMDI5Mjk3MiwieSI6MTU3LjV9XQ==" marker-end="url(#my-svg_flowchart-v2-pointEnd)"/><path d="M455.217,71.5L468.729,77.583C482.242,83.667,509.266,95.833,522.853,107.5C536.439,119.167,536.588,130.334,536.663,135.917L536.737,141.5" id="L_A_C_0" class="edge-thickness-normal edge-pattern-solid edge-thickness-normal edge-pattern-solid flowchart-link" style=";" data-edge="true" data-et="edge" data-id="L_A_C_0" data-points="W3sieCI6NDU1LjIxNzA3NjU0NTIxNDIsInkiOjcxLjUwMDAwMDAwMDAwMDAxfSx7IngiOjUzNi4yOTAzNzQ3NTU4NTk0LCJ5IjoxMDh9LHsieCI6NTM2Ljc5MDM3NDc1NTg1OTQsInkiOjE0NS41fV0=" marker-end="url(#my-svg_flowchart-v2-pointEnd)"/><path d="M151.606,220.5L129.967,228.583C108.329,236.667,65.051,252.833,43.412,272.333C21.773,291.833,21.773,314.667,21.773,337.5C21.773,360.333,21.773,383.167,21.773,410C21.773,436.833,21.773,467.667,21.773,498.5C21.773,529.333,21.773,560.167,21.773,589C21.773,617.833,21.773,644.667,21.773,671.5C21.773,698.333,21.773,725.167,21.773,750C21.773,774.833,21.773,797.667,21.773,820.5C21.773,843.333,21.773,866.167,30.472,883.46C39.171,900.754,56.57,912.507,65.269,918.384L73.968,924.261" id="L_B_D_0" class="edge-thickness-normal edge-pattern-solid edge-thickness-normal edge-pattern-solid flowchart-link" style=";" data-edge="true" data-et="edge" data-id="L_B_D_0" data-points="W3sieCI6MTUxLjYwNjIwNzgwNjEzMTEyLCJ5IjoyMjAuNX0seyJ4IjoyMS43NzM0Mzc1LCJ5IjoyNjl9LHsieCI6MjEuNzczNDM3NSwieSI6MzM3LjV9LHsieCI6MjEuNzczNDM3NSwieSI6NDA2fSx7IngiOjIxLjc3MzQzNzUsInkiOjQ5OC41fSx7IngiOjIxLjc3MzQzNzUsInkiOjU5MX0seyJ4IjoyMS43NzM0Mzc1LCJ5Ijo2NzEuNX0seyJ4IjoyMS43NzM0Mzc1LCJ5Ijo3NTJ9LHsieCI6MjEuNzczNDM3NSwieSI6ODIwLjV9LHsieCI6MjEuNzczNDM3NSwieSI6ODg5fSx7IngiOjc3LjI4MjA5MjI2NjIwMTIzLCJ5Ijo5MjYuNX1d" marker-end="url(#my-svg_flowchart-v2-pointEnd)"/><path d="M268.703,220.5L277.422,228.583C286.142,236.667,303.581,252.833,312.374,266.5C321.168,280.167,321.317,291.334,321.392,296.917L321.466,302.5" id="L_B_E_0" class="edge-thickness-normal edge-pattern-solid edge-thickness-normal edge-pattern-solid flowchart-link" style=";" data-edge="true" data-et="edge" data-id="L_B_E_0" data-points="W3sieCI6MjY4LjcwMjUwODM0NTg5NDIsInkiOjIyMC41fSx7IngiOjMyMS4wMTk1Mzg4NzkzOTQ1MywieSI6MjY5fSx7IngiOjMyMS41MTk1Mzg4NzkzOTQ2LCJ5IjozMDYuNX1d" marker-end="url(#my-svg_flowchart-v2-pointEnd)"/><path d="M231.577,369.5L213.886,375.583C196.195,381.667,160.813,393.833,143.122,415.333C125.431,436.833,125.431,467.667,125.431,498.5C125.431,529.333,125.431,560.167,125.431,589C125.431,617.833,125.431,644.667,125.431,671.5C125.431,698.333,125.431,725.167,125.431,750C125.431,774.833,125.431,797.667,125.431,820.5C125.431,843.333,125.431,866.167,126.605,883.181C127.779,900.195,130.127,911.39,131.301,916.988L132.475,922.585" id="L_E_D_0" class="edge-thickness-normal edge-pattern-solid edge-thickness-normal edge-pattern-solid flowchart-link" style=";" data-edge="true" data-et="edge" data-id="L_E_D_0" data-points="W3sieCI6MjMxLjU3NzM2MDQ0NTU2NTUsInkiOjM2OS41MDAwMDAwMDAwMDAwNn0seyJ4IjoxMjUuNDMwOTkyMTI2NDY0ODQsInkiOjQwNn0seyJ4IjoxMjUuNDMwOTkyMTI2NDY0ODQsInkiOjQ5OC41fSx7IngiOjEyNS40MzA5OTIxMjY0NjQ4NCwieSI6NTkxfSx7IngiOjEyNS40MzA5OTIxMjY0NjQ4NCwieSI6NjcxLjV9LHsieCI6MTI1LjQzMDk5MjEyNjQ2NDg0LCJ5Ijo3NTJ9LHsieCI6MTI1LjQzMDk5MjEyNjQ2NDg0LCJ5Ijo4MjAuNX0seyJ4IjoxMjUuNDMwOTkyMTI2NDY0ODQsInkiOjg4OX0seyJ4IjoxMzMuMjk1ODAxOTA5MDczNTMsInkiOjkyNi41fV0=" marker-end="url(#my-svg_flowchart-v2-pointEnd)"/><path d="M364.588,369.5L372.936,375.583C381.285,381.667,397.981,393.833,406.403,405.5C414.826,417.167,414.975,428.334,415.049,433.917L415.124,439.5" id="L_E_F_0" class="edge-thickness-normal edge-pattern-solid edge-thickness-normal edge-pattern-solid flowchart-link" style=";" data-edge="true" data-et="edge" data-id="L_E_F_0" data-points="W3sieCI6MzY0LjU4ODM0MTM3MTg1NjUzLCJ5IjozNjkuNX0seyJ4Ijo0MTQuNjc3MDkzNTA1ODU5NCwieSI6NDA2fSx7IngiOjQxNS4xNzcwOTM1MDU4NTk0LCJ5Ijo0NDMuNDk5OTk5OTk5OTk5OTR9XQ==" marker-end="url(#my-svg_flowchart-v2-pointEnd)"/><path d="M363.115,554.5L357.247,560.583C351.378,566.667,339.642,578.833,333.849,590.5C328.055,602.167,328.204,613.334,328.278,618.917L328.353,624.5" id="L_F_G_0" class="edge-thickness-normal edge-pattern-solid edge-thickness-normal edge-pattern-solid flowchart-link" style=";" data-edge="true" data-et="edge" data-id="L_F_G_0" data-points="W3sieCI6MzYzLjExNDU5MTk3OTk4MDQsInkiOjU1NC41fSx7IngiOjMyNy45MDYyNTc2MjkzOTQ1MywieSI6NTkxfSx7IngiOjMyOC40MDYyNTc2MjkzOTQ1MywieSI6NjI4LjUwMDAwMDAwMDAwMDF9XQ==" marker-end="url(#my-svg_flowchart-v2-pointEnd)"/><path d="M522.916,554.5L534.804,560.583C546.692,566.667,570.467,578.833,582.355,598.333C594.242,617.833,594.242,644.667,594.242,671.5C594.242,698.333,594.242,725.167,594.242,750C594.242,774.833,594.242,797.667,594.242,820.5C594.242,843.333,594.242,866.167,599.212,885.273C604.181,904.38,614.12,919.76,619.089,927.45L624.059,935.14" id="L_F_H_0" class="edge-thickness-normal edge-pattern-solid edge-thickness-normal edge-pattern-solid flowchart-link" style=";" data-edge="true" data-et="edge" data-id="L_F_H_0" data-points="W3sieCI6NTIyLjkxNjE1OTA1NzYxNzIsInkiOjU1NC41fSx7IngiOjU5NC4yNDIyMDI3NTg3ODkxLCJ5Ijo1OTF9LHsieCI6NTk0LjI0MjIwMjc1ODc4OTEsInkiOjY3MS41fSx7IngiOjU5NC4yNDIyMDI3NTg3ODkxLCJ5Ijo3NTJ9LHsieCI6NTk0LjI0MjIwMjc1ODc4OTEsInkiOjgyMC41fSx7IngiOjU5NC4yNDIyMDI3NTg3ODkxLCJ5Ijo4ODl9LHsieCI6NjI2LjIyOTUyMDA1MTM3NTYsInkiOjkzOC41fV0=" marker-end="url(#my-svg_flowchart-v2-pointEnd)"/><path d="M378.55,715.5L385.575,721.583C392.6,727.667,406.65,739.833,413.75,751.5C420.849,763.167,420.998,774.334,421.073,779.917L421.147,785.5" id="L_G_I_0" class="edge-thickness-normal edge-pattern-solid edge-thickness-normal edge-pattern-solid flowchart-link" style=";" data-edge="true" data-et="edge" data-id="L_G_I_0" data-points="W3sieCI6Mzc4LjU0OTc0Njk2OTQ3MTcsInkiOjcxNS40OTk5OTk5OTk5OTk4fSx7IngiOjQyMC43MDA1MzEwMDU4NTk0LCJ5Ijo3NTJ9LHsieCI6NDIxLjIwMDUzMTAwNTg1OTQsInkiOjc4OS41MDAwMDAwMDAwMDAyfV0=" marker-end="url(#my-svg_flowchart-v2-pointEnd)"/><path d="M278.263,715.5L271.071,721.583C263.879,727.667,249.496,739.833,242.304,757.333C235.112,774.833,235.112,797.667,235.112,820.5C235.112,843.333,235.112,866.167,228.521,883.393C221.93,900.618,208.747,912.237,202.156,918.046L195.565,923.855" id="L_G_D_0" class="edge-thickness-normal edge-pattern-solid edge-thickness-normal edge-pattern-solid flowchart-link" style=";" data-edge="true" data-et="edge" data-id="L_G_D_0" data-points="W3sieCI6Mjc4LjI2Mjc2ODI4OTMxNzMsInkiOjcxNS41fSx7IngiOjIzNS4xMTE5ODQyNTI5Mjk3LCJ5Ijo3NTJ9LHsieCI6MjM1LjExMTk4NDI1MjkyOTcsInkiOjgyMC41fSx7IngiOjIzNS4xMTE5ODQyNTI5Mjk3LCJ5Ijo4ODl9LHsieCI6MTkyLjU2NDQxMjU2MTI2MjYzLCJ5Ijo5MjYuNX1d" marker-end="url(#my-svg_flowchart-v2-pointEnd)"/><path d="M421.201,852.5L421.117,858.583C421.034,864.667,420.867,876.833,393.883,890.776C366.898,904.72,313.096,920.439,286.195,928.299L259.294,936.159" id="L_I_D_0" class="edge-thickness-normal edge-pattern-solid edge-thickness-normal edge-pattern-solid flowchart-link" style=";" data-edge="true" data-et="edge" data-id="L_I_D_0" data-points="W3sieCI6NDIxLjIwMDUzMTAwNTg1OTQsInkiOjg1Mi41MDAwMDAwMDAwMDAyfSx7IngiOjQyMC43MDA1MzEwMDU4NTk0LCJ5Ijo4ODl9LHsieCI6MjU1LjQ1NDQyOTYyNjQ2NDg0LCJ5Ijo5MzcuMjgwNjUzMzIwMjUzN31d" marker-end="url(#my-svg_flowchart-v2-pointEnd)"/><path d="M532.161,852.5L553.8,858.583C575.439,864.667,618.717,876.833,638.936,890.511C659.155,904.189,656.316,919.379,654.896,926.973L653.476,934.568" id="L_I_H_0" class="edge-thickness-normal edge-pattern-solid edge-thickness-normal edge-pattern-solid flowchart-link" style=";" data-edge="true" data-et="edge" data-id="L_I_H_0" data-points="W3sieCI6NTMyLjE2MDY3MTMxNzY2NTEsInkiOjg1Mi41MDAwMDAwMDAwMDAyfSx7IngiOjY2MS45OTQ4MDQzODIzMjQyLCJ5Ijo4ODl9LHsieCI6NjUyLjc0MTQwNzY0MzE5MzgsInkiOjkzOC41fV0=" marker-end="url(#my-svg_flowchart-v2-pointEnd)"/></g><g class="edgeLabels"><g class="edgeLabel" transform="translate(234.2487030029297, 108)"><g class="label" data-id="L_A_B_0" transform="translate(-13.7734375, -12)"><foreignObject width="27.546875" height="24"><div xmlns="http://www.w3.org/1999/xhtml" class="labelBkg" style="display: table-cell; white-space: nowrap; line-height: 1.5; max-width: 200px; text-align: center;"><span class="edgeLabel"><p>Non</p></span></div></foreignObject></g></g><g class="edgeLabel" transform="translate(536.2903747558594, 108)"><g class="label" data-id="L_A_C_0" transform="translate(-12.046875, -12)"><foreignObject width="24.09375" height="24"><div xmlns="http://www.w3.org/1999/xhtml" class="labelBkg" style="display: table-cell; white-space: nowrap; line-height: 1.5; max-width: 200px; text-align: center;"><span class="edgeLabel"><p>Oui</p></span></div></foreignObject></g></g><g class="edgeLabel" transform="translate(21.7734375, 591)"><g class="label" data-id="L_B_D_0" transform="translate(-13.7734375, -12)"><foreignObject width="27.546875" height="24"><div xmlns="http://www.w3.org/1999/xhtml" class="labelBkg" style="display: table-cell; white-space: nowrap; line-height: 1.5; max-width: 200px; text-align: center;"><span class="edgeLabel"><p>Non</p></span></div></foreignObject></g></g><g class="edgeLabel" transform="translate(321.01953887939453, 269)"><g class="label" data-id="L_B_E_0" transform="translate(-12.046875, -12)"><foreignObject width="24.09375" height="24"><div xmlns="http://www.w3.org/1999/xhtml" class="labelBkg" style="display: table-cell; white-space: nowrap; line-height: 1.5; max-width: 200px; text-align: center;"><span class="edgeLabel"><p>Oui</p></span></div></foreignObject></g></g><g class="edgeLabel" transform="translate(125.43099212646484, 671.5)"><g class="label" data-id="L_E_D_0" transform="translate(-13.7734375, -12)"><foreignObject width="27.546875" height="24"><div xmlns="http://www.w3.org/1999/xhtml" class="labelBkg" style="display: table-cell; white-space: nowrap; line-height: 1.5; max-width: 200px; text-align: center;"><span class="edgeLabel"><p>Non</p></span></div></foreignObject></g></g><g class="edgeLabel" transform="translate(414.6770935058594, 406)"><g class="label" data-id="L_E_F_0" transform="translate(-12.046875, -12)"><foreignObject width="24.09375" height="24"><div xmlns="http://www.w3.org/1999/xhtml" class="labelBkg" style="display: table-cell; white-space: nowrap; line-height: 1.5; max-width: 200px; text-align: center;"><span class="edgeLabel"><p>Oui</p></span></div></foreignObject></g></g><g class="edgeLabel" transform="translate(327.90625762939453, 591)"><g class="label" data-id="L_F_G_0" transform="translate(-13.7734375, -12)"><foreignObject width="27.546875" height="24"><div xmlns="http://www.w3.org/1999/xhtml" class="labelBkg" style="display: table-cell; white-space: nowrap; line-height: 1.5; max-width: 200px; text-align: center;"><span class="edgeLabel"><p>Non</p></span></div></foreignObject></g></g><g class="edgeLabel" transform="translate(594.2422027587891, 752)"><g class="label" data-id="L_F_H_0" transform="translate(-12.046875, -12)"><foreignObject width="24.09375" height="24"><div xmlns="http://www.w3.org/1999/xhtml" class="labelBkg" style="display: table-cell; white-space: nowrap; line-height: 1.5; max-width: 200px; text-align: center;"><span class="edgeLabel"><p>Oui</p></span></div></foreignObject></g></g><g class="edgeLabel" transform="translate(420.7005310058594, 752)"><g class="label" data-id="L_G_I_0" transform="translate(-13.7734375, -12)"><foreignObject width="27.546875" height="24"><div xmlns="http://www.w3.org/1999/xhtml" class="labelBkg" style="display: table-cell; white-space: nowrap; line-height: 1.5; max-width: 200px; text-align: center;"><span class="edgeLabel"><p>Non</p></span></div></foreignObject></g></g><g class="edgeLabel" transform="translate(235.1119842529297, 820.5)"><g class="label" data-id="L_G_D_0" transform="translate(-12.046875, -12)"><foreignObject width="24.09375" height="24"><div xmlns="http://www.w3.org/1999/xhtml" class="labelBkg" style="display: table-cell; white-space: nowrap; line-height: 1.5; max-width: 200px; text-align: center;"><span class="edgeLabel"><p>Oui</p></span></div></foreignObject></g></g><g class="edgeLabel" transform="translate(420.7005310058594, 889)"><g class="label" data-id="L_I_D_0" transform="translate(-13.7734375, -12)"><foreignObject width="27.546875" height="24"><div xmlns="http://www.w3.org/1999/xhtml" class="labelBkg" style="display: table-cell; white-space: nowrap; line-height: 1.5; max-width: 200px; text-align: center;"><span class="edgeLabel"><p>Non</p></span></div></foreignObject></g></g><g class="edgeLabel" transform="translate(621.31684, 877.56429)"><g class="label" data-id="L_I_H_0" transform="translate(-12.046875, -12)"><foreignObject width="24.09375" height="24"><div xmlns="http://www.w3.org/1999/xhtml" class="labelBkg" style="display: table-cell; white-space: nowrap; line-height: 1.5; max-width: 200px; text-align: center;"><span class="edgeLabel"><p>Oui</p></span></div></foreignObject></g></g></g><g class="nodes"><g class="node default" id="flowchart-A-0" transform="translate(385.26953887939453, 39.5)"><g class="basic label-container"><path d="M-122.79166666666666 -31.5 C-88.08444364158979 -31.5, -53.3772206165129 -31.5, 0 -31.5 C36.73047338592654 -31.5, 73.46094677185307 -31.5, 122.79166666666666 -31.5 C126.6948606646007 -23.69361200413193, 130.59805466253474 -15.887224008263859, 138.54166666666666 0 C132.99351110705376 11.096311119225803, 127.44535554744085 22.192622238451605, 122.79166666666666 31.5 C84.92282874034201 31.5, 47.05399081401737 31.5, 0 31.5 C-40.195952948516876 31.5, -80.39190589703375 31.5, -122.79166666666666 31.5 C-128.45935100902102 20.164631315291278, -134.12703535137538 8.829262630582555, -138.54166666666666 0 C-132.92040651236817 -11.242520308596985, -127.29914635806968 -22.48504061719397, -122.79166666666666 -31.5" stroke="none" stroke-width="0" fill="#ECECFF" style=""/><path d="M-122.79166666666666 -31.5 C-74.47720177832299 -31.5, -26.16273688997933 -31.5, 0 -31.5 M-122.79166666666666 -31.5 C-76.84655705463857 -31.5, -30.901447442610475 -31.5, 0 -31.5 M0 -31.5 C26.54563161897211 -31.5, 53.09126323794422 -31.5, 122.79166666666666 -31.5 M0 -31.5 C39.98937384321988 -31.5, 79.97874768643976 -31.5, 122.79166666666666 -31.5 M122.79166666666666 -31.5 C127.80315096478579 -21.477031403761757, 132.81463526290491 -11.45406280752351, 138.54166666666666 0 M122.79166666666666 -31.5 C127.38313972634961 -22.317053880634088, 131.97461278603257 -13.134107761268176, 138.54166666666666 0 M138.54166666666666 0 C135.22992318860682 6.623486956119677, 131.91817971054698 13.246973912239355, 122.79166666666666 31.5 M138.54166666666666 0 C132.90649432901014 11.270344675313, 127.27132199135366 22.540689350626, 122.79166666666666 31.5 M122.79166666666666 31.5 C80.02332326856938 31.5, 37.25497987047213 31.5, 0 31.5 M122.79166666666666 31.5 C90.64716821580016 31.5, 58.50266976493367 31.5, 0 31.5 M0 31.5 C-37.07063299880124 31.5, -74.14126599760247 31.5, -122.79166666666666 31.5 M0 31.5 C-35.39963465942368 31.5, -70.79926931884737 31.5, -122.79166666666666 31.5 M-122.79166666666666 31.5 C-127.97822310103443 21.126887131264446, -133.1647795354022 10.753774262528893, -138.54166666666666 0 M-122.79166666666666 31.5 C-128.2807241169754 20.521885099382548, -133.7697815672841 9.543770198765095, -138.54166666666666 0 M-138.54166666666666 0 C-133.48895121835855 -10.10543089661622, -128.43623577005044 -20.21086179323244, -122.79166666666666 -31.5 M-138.54166666666666 0 C-134.94383681602096 -7.195659701291375, -131.3460069653753 -14.39131940258275, -122.79166666666666 -31.5" stroke="#9370DB" stroke-width="1.3" fill="none" stroke-dasharray="0 0" style=""/></g><g class="label" style="" transform="translate(-100, -24)"><rect/><foreignObject width="200" height="48"><div xmlns="http://www.w3.org/1999/xhtml" style="display: table; white-space: break-spaces; line-height: 1.5; max-width: 200px; text-align: center; width: 200px;"><span class="nodeLabel"><p>La cible est-elle engagée avec le PNJ ?</p></span></div></foreignObject></g></g><g class="node default" id="flowchart-B-2" transform="translate(234.2487030029297, 188.5)"><g class="basic label-container"><path d="M-122.79166666666666 -31.5 C-82.25545280948654 -31.5, -41.719238952306426 -31.5, 0 -31.5 C45.08254812093093 -31.5, 90.16509624186186 -31.5, 122.79166666666666 -31.5 C127.71271703040918 -21.657899272514946, 132.6337673941517 -11.815798545029896, 138.54166666666666 0 C134.82182917060237 7.439674992128587, 131.10199167453806 14.879349984257175, 122.79166666666666 31.5 C80.36549215285348 31.5, 37.9393176390403 31.5, 0 31.5 C-47.25422722534632 31.5, -94.50845445069264 31.5, -122.79166666666666 31.5 C-127.60817425638406 21.866984820565193, -132.42468184610146 12.233969641130386, -138.54166666666666 0 C-134.73400323833135 -7.615326856670633, -130.92633980999602 -15.230653713341265, -122.79166666666666 -31.5" stroke="none" stroke-width="0" fill="#ECECFF" style=""/><path d="M-122.79166666666666 -31.5 C-88.30757153967272 -31.5, -53.8234764126788 -31.5, 0 -31.5 M-122.79166666666666 -31.5 C-90.86692642760124 -31.5, -58.942186188535814 -31.5, 0 -31.5 M0 -31.5 C38.785083073146176 -31.5, 77.57016614629235 -31.5, 122.79166666666666 -31.5 M0 -31.5 C49.08036566061909 -31.5, 98.16073132123817 -31.5, 122.79166666666666 -31.5 M122.79166666666666 -31.5 C126.55130457472961 -23.980724183874095, 130.31094248279257 -16.461448367748194, 138.54166666666666 0 M122.79166666666666 -31.5 C128.70037420161268 -19.682584930107936, 134.60908173655872 -7.865169860215875, 138.54166666666666 0 M138.54166666666666 0 C134.26188989113655 8.559553551060239, 129.9821131156064 17.119107102120477, 122.79166666666666 31.5 M138.54166666666666 0 C134.50920445302313 8.064924427287057, 130.4767422393796 16.129848854574114, 122.79166666666666 31.5 M122.79166666666666 31.5 C89.18759278483097 31.5, 55.583518902995294 31.5, 0 31.5 M122.79166666666666 31.5 C85.18769566651517 31.5, 47.58372466636369 31.5, 0 31.5 M0 31.5 C-43.28374733565021 31.5, -86.56749467130042 31.5, -122.79166666666666 31.5 M0 31.5 C-38.35266227473698 31.5, -76.70532454947396 31.5, -122.79166666666666 31.5 M-122.79166666666666 31.5 C-126.79394978287527 23.49543376758276, -130.7962328990839 15.49086753516552, -138.54166666666666 0 M-122.79166666666666 31.5 C-128.80403017958318 19.475272974166977, -134.81639369249967 7.450545948333957, -138.54166666666666 0 M-138.54166666666666 0 C-133.49511216968827 -10.09310899395679, -128.44855767270985 -20.18621798791358, -122.79166666666666 -31.5 M-138.54166666666666 0 C-135.2160579473843 -6.651217438564722, -131.89044922810194 -13.302434877129445, -122.79166666666666 -31.5" stroke="#9370DB" stroke-width="1.3" fill="none" stroke-dasharray="0 0" style=""/></g><g class="label" style="" transform="translate(-100, -24)"><rect/><foreignObject width="200" height="48"><div xmlns="http://www.w3.org/1999/xhtml" style="display: table; white-space: break-spaces; line-height: 1.5; max-width: 200px; text-align: center; width: 200px;"><span class="nodeLabel"><p>La cible est-elle en ligne de vue du PNJ ?</p></span></div></foreignObject></g></g><g class="node default" id="flowchart-C-4" transform="translate(536.2903747558594, 188.5)"><polygon points="12,-87 227,-87 227,0 0,0 0,-75 12,-87" class="label-container" transform="translate(-113.5,43.5)"/><g class="label" style="" transform="translate(-100, -36)"><rect/><foreignObject width="200" height="72"><div xmlns="http://www.w3.org/1999/xhtml" style="display: table; white-space: break-spaces; line-height: 1.5; max-width: 200px; text-align: center; width: 200px;"><span class="nodeLabel"><p>Le PNJ effectue une action de combat rapproché contre la cible.</p></span></div></foreignObject></g></g><g class="node default" id="flowchart-D-6" transform="translate(141.45442962646484, 969.5)"><polygon points="12,-87 227,-87 227,0 0,0 0,-75 12,-87" class="label-container" transform="translate(-113.5,43.5)"/><g class="label" style="" transform="translate(-100, -36)"><rect/><foreignObject width="200" height="72"><div xmlns="http://www.w3.org/1999/xhtml" style="display: table; white-space: break-spaces; line-height: 1.5; max-width: 200px; text-align: center; width: 200px;"><span class="nodeLabel"><p>Le PNJ se déplace vers la cible par le chemin le plus court.</p></span></div></foreignObject></g></g><g class="node default" id="flowchart-E-8" transform="translate(321.01953887939453, 337.5)"><g class="basic label-container"><path d="M-122.79166666666666 -31.5 C-77.3864414119316 -31.5, -31.981216157196556 -31.5, 0 -31.5 C42.77970697338564 -31.5, 85.55941394677129 -31.5, 122.79166666666666 -31.5 C128.04923220298105 -20.98486892737123, 133.30679773929543 -10.469737854742458, 138.54166666666666 0 C132.74298133258443 11.597370668164464, 126.9442959985022 23.194741336328928, 122.79166666666666 31.5 C87.41662325036125 31.5, 52.04157983405587 31.5, 0 31.5 C-28.224683993799296 31.5, -56.44936798759859 31.5, -122.79166666666666 31.5 C-127.78240167364027 21.518529986052798, -132.77313668061385 11.537059972105595, -138.54166666666666 0 C-133.6776778242087 -9.727977684915915, -128.81368898175074 -19.45595536983183, -122.79166666666666 -31.5" stroke="none" stroke-width="0" fill="#ECECFF" style=""/><path d="M-122.79166666666666 -31.5 C-76.10595162047487 -31.5, -29.42023657428308 -31.5, 0 -31.5 M-122.79166666666666 -31.5 C-89.69469158678541 -31.5, -56.59771650690416 -31.5, 0 -31.5 M0 -31.5 C43.95276819617478 -31.5, 87.90553639234956 -31.5, 122.79166666666666 -31.5 M0 -31.5 C36.02769129787726 -31.5, 72.05538259575452 -31.5, 122.79166666666666 -31.5 M122.79166666666666 -31.5 C126.6829259877305 -23.717481357872305, 130.57418530879434 -15.93496271574461, 138.54166666666666 0 M122.79166666666666 -31.5 C127.67675333217234 -21.72982666898865, 132.56183999767802 -11.959653337977297, 138.54166666666666 0 M138.54166666666666 0 C135.03248535721096 7.018362618911402, 131.52330404775526 14.036725237822804, 122.79166666666666 31.5 M138.54166666666666 0 C134.53213382001903 8.019065693295257, 130.5226009733714 16.038131386590514, 122.79166666666666 31.5 M122.79166666666666 31.5 C96.31607729958516 31.5, 69.84048793250366 31.5, 0 31.5 M122.79166666666666 31.5 C87.14806726674024 31.5, 51.50446786681384 31.5, 0 31.5 M0 31.5 C-48.82067006472716 31.5, -97.64134012945432 31.5, -122.79166666666666 31.5 M0 31.5 C-36.73291549642812 31.5, -73.46583099285624 31.5, -122.79166666666666 31.5 M-122.79166666666666 31.5 C-127.15944542055537 22.764442492222564, -131.5272241744441 14.028884984445131, -138.54166666666666 0 M-122.79166666666666 31.5 C-125.94217107856804 25.19899117619725, -129.09267549046942 18.8979823523945, -138.54166666666666 0 M-138.54166666666666 0 C-132.3160853444455 -12.45116264444231, -126.09050402222435 -24.90232528888462, -122.79166666666666 -31.5 M-138.54166666666666 0 C-133.25750759800815 -10.568318137317032, -127.97334852934962 -21.136636274634064, -122.79166666666666 -31.5" stroke="#9370DB" stroke-width="1.3" fill="none" stroke-dasharray="0 0" style=""/></g><g class="label" style="" transform="translate(-100, -24)"><rect/><foreignObject width="200" height="48"><div xmlns="http://www.w3.org/1999/xhtml" style="display: table; white-space: break-spaces; line-height: 1.5; max-width: 200px; text-align: center; width: 200px;"><span class="nodeLabel"><p>Le PNJ a-t-il une statistique de Tir ?</p></span></div></foreignObject></g></g><g class="node default" id="flowchart-F-10" transform="translate(414.6770935058594, 498.5)"><g class="basic label-container"><path d="M-110.79166666666666 -55.5 C-85.64368726059926 -55.5, -60.495707854531865 -55.5, 0 -55.5 C26.797422166234213 -55.5, 53.594844332468426 -55.5, 110.79166666666666 -55.5 C121.52073539272656 -34.04186254788017, 132.24980411878647 -12.58372509576035, 138.54166666666666 0 C129.98915055887235 17.10503221558863, 121.43663445107802 34.21006443117726, 110.79166666666666 55.5 C67.23734551544112 55.5, 23.683024364215598 55.5, 0 55.5 C-25.241796540656573 55.5, -50.483593081313145 55.5, -110.79166666666666 55.5 C-117.57525911833345 41.93281509666641, -124.35885157000025 28.365630193332816, -138.54166666666666 0 C-130.8903698191101 -15.302593695113083, -123.23907297155357 -30.605187390226167, -110.79166666666666 -55.5" stroke="none" stroke-width="0" fill="#ECECFF" style=""/><path d="M-110.79166666666666 -55.5 C-88.01637343136281 -55.5, -65.24108019605897 -55.5, 0 -55.5 M-110.79166666666666 -55.5 C-67.78519545175644 -55.5, -24.7787242368462 -55.5, 0 -55.5 M0 -55.5 C23.922051356330105 -55.5, 47.84410271266021 -55.5, 110.79166666666666 -55.5 M0 -55.5 C34.084170157669035 -55.5, 68.16834031533807 -55.5, 110.79166666666666 -55.5 M110.79166666666666 -55.5 C120.67920096182249 -35.724931409688324, 130.56673525697835 -15.949862819376648, 138.54166666666666 0 M110.79166666666666 -55.5 C117.61460929512371 -41.85411474308587, 124.43755192358078 -28.208229486171753, 138.54166666666666 0 M138.54166666666666 0 C129.8420294853833 17.399274362566672, 121.14239230409999 34.798548725133344, 110.79166666666666 55.5 M138.54166666666666 0 C130.21678003997775 16.649773253377823, 121.89189341328884 33.29954650675565, 110.79166666666666 55.5 M110.79166666666666 55.5 C74.88148003633113 55.5, 38.971293405995596 55.5, 0 55.5 M110.79166666666666 55.5 C69.93611144161058 55.5, 29.0805562165545 55.5, 0 55.5 M0 55.5 C-35.36100110765153 55.5, -70.72200221530306 55.5, -110.79166666666666 55.5 M0 55.5 C-25.932968111126684 55.5, -51.86593622225337 55.5, -110.79166666666666 55.5 M-110.79166666666666 55.5 C-118.68001348573823 39.72330636185684, -126.56836030480981 23.946612723713688, -138.54166666666666 0 M-110.79166666666666 55.5 C-119.40532034144687 38.272692650439595, -128.01897401622705 21.04538530087919, -138.54166666666666 0 M-138.54166666666666 0 C-130.65033592012068 -15.782661493091958, -122.7590051735747 -31.565322986183915, -110.79166666666666 -55.5 M-138.54166666666666 0 C-132.72230284146588 -11.638727650401568, -126.9029390162651 -23.277455300803137, -110.79166666666666 -55.5" stroke="#9370DB" stroke-width="1.3" fill="none" stroke-dasharray="0 0" style=""/></g><g class="label" style="" transform="translate(-100, -48)"><rect/><foreignObject width="200" height="96"><div xmlns="http://www.w3.org/1999/xhtml" style="display: table; white-space: break-spaces; line-height: 1.5; max-width: 200px; text-align: center; width: 200px;"><span class="nodeLabel"><p>La statistique de combat à distance du PNJ est-elle supérieure à sa statistique de combat rapproché ?</p></span></div></foreignObject></g></g><g class="node default" id="flowchart-G-12" transform="translate(327.90625762939453, 671.5)"><g class="basic label-container"><path d="M-116.79166666666666 -43.5 C-83.9602273410041 -43.5, -51.12878801534153 -43.5, 0 -43.5 C33.24593279168952 -43.5, 66.49186558337904 -43.5, 116.79166666666666 -43.5 C124.63352388673115 -27.816285559871016, 132.47538110679565 -12.132571119742032, 138.54166666666666 0 C133.7514394594429 9.580454414447498, 128.96121225221916 19.160908828894996, 116.79166666666666 43.5 C71.54865441872991 43.5, 26.305642170793178 43.5, 0 43.5 C-25.72322672862308 43.5, -51.44645345724616 43.5, -116.79166666666666 43.5 C-124.34643126454772 28.390470804237882, -131.90119586242878 13.280941608475764, -138.54166666666666 0 C-132.70789158050655 -11.667550172320194, -126.87411649434647 -23.335100344640388, -116.79166666666666 -43.5" stroke="none" stroke-width="0" fill="#ECECFF" style=""/><path d="M-116.79166666666666 -43.5 C-89.13909331662953 -43.5, -61.48651996659238 -43.5, 0 -43.5 M-116.79166666666666 -43.5 C-79.99114127852795 -43.5, -43.190615890389225 -43.5, 0 -43.5 M0 -43.5 C38.694203301922435 -43.5, 77.38840660384487 -43.5, 116.79166666666666 -43.5 M0 -43.5 C39.454600504622135 -43.5, 78.90920100924427 -43.5, 116.79166666666666 -43.5 M116.79166666666666 -43.5 C125.31936731191857 -26.44459870949619, 133.84706795717045 -9.389197418992381, 138.54166666666666 0 M116.79166666666666 -43.5 C123.00910322206661 -31.065126889200084, 129.22653977746657 -18.630253778400167, 138.54166666666666 0 M138.54166666666666 0 C133.766062247336 9.551208838661307, 128.99045782800536 19.102417677322613, 116.79166666666666 43.5 M138.54166666666666 0 C131.3598465529234 14.363640227486549, 124.17802643918012 28.727280454973098, 116.79166666666666 43.5 M116.79166666666666 43.5 C87.65181730925883 43.5, 58.511967951851005 43.5, 0 43.5 M116.79166666666666 43.5 C75.86103218786053 43.5, 34.93039770905442 43.5, 0 43.5 M0 43.5 C-33.714219571494716 43.5, -67.42843914298943 43.5, -116.79166666666666 43.5 M0 43.5 C-45.44717510519795 43.5, -90.8943502103959 43.5, -116.79166666666666 43.5 M-116.79166666666666 43.5 C-124.0102784605046 29.062776412324126, -131.22889025434253 14.625552824648256, -138.54166666666666 0 M-116.79166666666666 43.5 C-124.05240618136239 28.97852097060855, -131.31314569605811 14.457041941217103, -138.54166666666666 0 M-138.54166666666666 0 C-131.8869319457835 -13.309469441766366, -125.23219722490029 -26.61893888353273, -116.79166666666666 -43.5 M-138.54166666666666 0 C-130.85762430478292 -15.3680847237675, -123.17358194289916 -30.736169447535, -116.79166666666666 -43.5" stroke="#9370DB" stroke-width="1.3" fill="none" stroke-dasharray="0 0" style=""/></g><g class="label" style="" transform="translate(-100, -36)"><rect/><foreignObject width="200" height="72"><div xmlns="http://www.w3.org/1999/xhtml" style="display: table; white-space: break-spaces; line-height: 1.5; max-width: 200px; text-align: center; width: 200px;"><span class="nodeLabel"><p>Le PNJ peut-il atteindre ET attaquer la cible durant ce tour ?</p></span></div></foreignObject></g></g><g class="node default" id="flowchart-H-14" transform="translate(645.9713668823242, 969.5)"><polygon points="12,-63 227,-63 227,0 0,0 0,-51 12,-63" class="label-container" transform="translate(-113.5,31.5)"/><g class="label" style="" transform="translate(-100, -24)"><rect/><foreignObject width="200" height="48"><div xmlns="http://www.w3.org/1999/xhtml" style="display: table; white-space: break-spaces; line-height: 1.5; max-width: 200px; text-align: center; width: 200px;"><span class="nodeLabel"><p>Le PNJ effectue un combat à distance contre la cible.</p></span></div></foreignObject></g></g><g class="node default" id="flowchart-I-16" transform="translate(420.7005310058594, 820.5)"><g class="basic label-container"><path d="M-122.79166666666666 -31.5 C-86.6714241365136 -31.5, -50.551181606360544 -31.5, 0 -31.5 C27.292486197437476 -31.5, 54.58497239487495 -31.5, 122.79166666666666 -31.5 C127.64338541209119 -21.796562509150938, 132.49510415751573 -12.09312501830188, 138.54166666666666 0 C133.99628816712482 9.090756999083684, 129.45090966758298 18.181513998167368, 122.79166666666666 31.5 C86.82233181940065 31.5, 50.85299697213463 31.5, 0 31.5 C-37.6967853102923 31.5, -75.3935706205846 31.5, -122.79166666666666 31.5 C-128.47272200707255 20.1378893191882, -134.15377734747847 8.775778638376401, -138.54166666666666 0 C-134.5531102302069 -7.977112872919543, -130.5645537937471 -15.954225745839086, -122.79166666666666 -31.5" stroke="none" stroke-width="0" fill="#ECECFF" style=""/><path d="M-122.79166666666666 -31.5 C-92.25982628340527 -31.5, -61.7279859001439 -31.5, 0 -31.5 M-122.79166666666666 -31.5 C-83.26743727239811 -31.5, -43.74320787812957 -31.5, 0 -31.5 M0 -31.5 C26.82952546243326 -31.5, 53.65905092486652 -31.5, 122.79166666666666 -31.5 M0 -31.5 C30.164825318484183 -31.5, 60.32965063696837 -31.5, 122.79166666666666 -31.5 M122.79166666666666 -31.5 C128.02297887729185 -21.037375578749632, 133.254291087917 -10.574751157499268, 138.54166666666666 0 M122.79166666666666 -31.5 C126.67509226636665 -23.733148800600034, 130.5585178660666 -15.966297601200068, 138.54166666666666 0 M138.54166666666666 0 C134.47050113025983 8.142331072813647, 130.399335593853 16.284662145627294, 122.79166666666666 31.5 M138.54166666666666 0 C134.16428095713545 8.754771419062434, 129.78689524760424 17.50954283812487, 122.79166666666666 31.5 M122.79166666666666 31.5 C93.03086959820766 31.5, 63.270072529748674 31.5, 0 31.5 M122.79166666666666 31.5 C95.72632639533484 31.5, 68.660986124003 31.5, 0 31.5 M0 31.5 C-42.32129222579753 31.5, -84.64258445159506 31.5, -122.79166666666666 31.5 M0 31.5 C-39.38055893491294 31.5, -78.76111786982588 31.5, -122.79166666666666 31.5 M-122.79166666666666 31.5 C-128.988820842313 19.10569164870732, -135.18597501795932 6.7113832974146455, -138.54166666666666 0 M-122.79166666666666 31.5 C-128.2194492266869 20.644434879959544, -133.64723178670712 9.788869759919088, -138.54166666666666 0 M-138.54166666666666 0 C-133.9615224428846 -9.160288447564128, -129.38137821910254 -18.320576895128255, -122.79166666666666 -31.5 M-138.54166666666666 0 C-133.14851203330105 -10.78630926673125, -127.7553573999354 -21.5726185334625, -122.79166666666666 -31.5" stroke="#9370DB" stroke-width="1.3" fill="none" stroke-dasharray="0 0" style=""/></g><g class="label" style="" transform="translate(-100, -24)"><rect/><foreignObject width="200" height="48"><div xmlns="http://www.w3.org/1999/xhtml" style="display: table; white-space: break-spaces; line-height: 1.5; max-width: 200px; text-align: center; width: 200px;"><span class="nodeLabel"><p>Le PNJ s’est-il déjà déplacé ce tour-ci ?</p></span></div></foreignObject></g></g></g></g></g></svg>